<svg xmlns="http://www.w3.org/2000/svg" width="1200" height="630" viewBox="0 0 1200 630" role="img" aria-labelledby="title desc">
  <title id="title">PLANKZ DECKZ product Open Graph placeholder</title>
  <desc id="desc">Weathered timber and coastal deck placeholder for PLANKZ DECKZ product pages.</desc>
  <rect width="1200" height="630" fill="#F4EFE6"/>
  <rect x="72" y="72" width="1056" height="486" rx="34" fill="#FFF8ED" stroke="#7ECFC0" stroke-width="4"/>
  <path d="M710 420L910 236C937 211 981 214 1004 242C1027 271 1022 314 993 337L793 522C765 548 721 545 698 516C675 488 680 445 710 420Z" fill="url(#deck)" stroke="#132321" stroke-width="8"/>
  <circle cx="748" cy="474" r="22" fill="#F5A0A0" stroke="#132321" stroke-width="7"/>
  <circle cx="948" cy="290" r="22" fill="#F5A0A0" stroke="#132321" stroke-width="7"/>
  <circle cx="898" cy="182" r="64" fill="#F5BE33" opacity="0.22"/>
  <path d="M96 456C202 418 304 449 423 420C560 386 657 314 796 336C925 357 1019 422 1104 391" fill="none" stroke="#7ECFC0" stroke-width="10" stroke-linecap="round" opacity="0.42"/>
  <text x="132" y="184" fill="#132321" font-family="Inter, Arial, sans-serif" font-size="30" font-weight="800" letter-spacing="7">PLANKZ DECKZ</text>
  <text x="132" y="280" fill="#F5BE33" font-family="Impact, Arial Black, sans-serif" font-size="74" letter-spacing="5">ONE-OFF DECKZ</text>
  <text x="132" y="350" fill="#243230" font-family="Inter, Arial, sans-serif" font-size="30" font-weight="700">Hand-crafted from recycled and reclaimed timber.</text>
  <text x="132" y="420" fill="#4B5A56" font-family="Inter, Arial, sans-serif" font-size="24" font-weight="500">Custom builds · Local pickup · Australian beach lifestyle</text>
  <defs>
    <linearGradient id="deck" x1="698" y1="522" x2="1004" y2="236" gradientUnits="userSpaceOnUse">
      <stop stop-color="#6F4327"/>
      <stop offset="0.2" stop-color="#D9C3A2"/>
      <stop offset="0.42" stop-color="#203A49"/>
      <stop offset="0.66" stop-color="#A87445"/>
      <stop offset="0.84" stop-color="#F5BE33"/>
      <stop offset="1" stop-color="#5B3722"/>
    </linearGradient>
  </defs>
</svg>
